<svg width="142" height="76" viewBox="0 0 142 76" fill="none" xmlns="http://www.w3.org/2000/svg">
<path fill-rule="evenodd" clip-rule="evenodd" d="M120.833 47.5235V68.1824H123.019C126.292 68.1824 125.795 68.3728 125.795 66.9676V64.95L126.707 66.2589C128.759 69.2008 134.026 68.9231 136.699 65.7326C141.463 60.0475 140.968 44.5625 135.874 39.9364C134.065 38.2929 130.15 38.3719 127.824 40.0991L126.04 41.4236V34.1444V26.8652H123.436H120.833V47.5235ZM10.0867 28.2816C2.774 30.9981 -0.440065 38.0728 0.0481772 50.3777C0.532949 62.5995 4.87275 68.1255 13.9695 68.1034C18.5979 68.0918 19.2805 67.6572 18.79 65.0319C18.4088 62.9911 18.403 62.9876 16.288 63.5744C9.58626 65.4328 5.12787 59.362 5.14291 48.3996C5.15853 37.1967 8.87125 31.4814 15.6129 32.2837C18.3041 32.6038 18.3717 32.5724 18.7501 30.8424C18.9682 29.8437 18.8744 28.8108 18.5337 28.4686C17.5474 27.4781 12.5481 27.3672 10.0867 28.2816ZM79.7607 48.0696V68.1121H87.8595H95.9583V65.7883V63.4646H90.4627H84.9671V45.7458V28.0271H82.3639H79.7607V48.0696ZM28.0463 39.0691C23.334 40.5365 21.0443 45.3787 21.0443 53.879C21.0443 63.2531 24.296 68.3055 30.3285 68.3055C36.6479 68.3055 39.5559 63.6632 39.5559 53.5729C39.5559 42.4136 35.1478 36.8586 28.0463 39.0691ZM63.5752 39.1051C62.5437 39.4362 61.4672 40.0235 60.9442 40.4987C60.0939 41.2714 59.9308 41.4725 59.9308 40.2501C59.9308 39.7684 59.8872 39.0864 59.9308 39.1051C59.9308 39.1051 58.3441 39.065 57.5434 39.065H55.4643V53.5886V68.1121H58.0675H60.6707L60.673 57.5099C60.6753 45.399 61.2977 43.1316 64.6217 43.1316C68.0978 43.1316 68.4577 44.3452 68.6862 56.8447L68.8921 68.1121H71.1447H73.3973V56.4747C73.3973 43.8526 72.9999 41.7153 70.325 39.955C68.4663 38.7321 65.3882 38.5881 63.5752 39.1051ZM104.346 38.8745C100.274 39.7743 99.6629 40.4023 100.558 42.7674C101.105 44.2122 101.125 44.2156 103.429 43.307C106.663 42.0313 109.013 43.005 109.83 45.9579C110.681 49.034 110.574 49.522 109.047 49.522C103.122 49.522 98.2277 54.2264 98.1838 59.9655C98.1305 66.8329 104.271 70.7798 109.077 66.9676L110.71 65.6721L110.652 66.8921C110.652 68.2511 110.289 68.1121 113.209 68.1121H115.339L115.17 56.929C114.964 43.3739 114.483 41.4806 110.782 39.6808C108.412 38.5288 106.045 38.499 104.346 38.8745ZM44.473 53.5886V68.1121H47.0762H49.6794V53.5886V39.065H47.0762H44.473V53.5886ZM32.1519 43.4238C36.1417 46.2303 35.7292 62.4032 31.6272 63.9996C28.2974 65.2951 25.9621 61.2407 25.9655 54.1695C25.9702 45.0423 28.4148 40.7951 32.1519 43.4238ZM132.177 43.576C136.348 46.3465 135.786 62.7355 131.484 63.8201C127.704 64.7728 126.04 61.5411 126.04 53.2481C126.04 47.8343 126.427 46.2216 128.228 44.1482C129.138 43.1008 131.046 42.8243 132.177 43.576ZM109.725 61.5631C107.394 66.432 102.445 64.4336 103.069 58.8757C103.41 55.8403 105.452 53.7582 108.37 53.4712L110.131 53.2981L110.304 56.6466C110.403 58.5614 110.154 60.6662 109.725 61.5631Z" fill="#1C6185"/>
<circle cx="46.78" cy="31.5886" r="1.91785" stroke="#1C6185" stroke-width="3.06814"/>
<circle cx="41.6021" cy="25.8345" r="2.30128" fill="#1C6185"/>
<circle cx="49.0818" cy="16.0545" r="6.52041" stroke="#1C6185" stroke-width="3.06814"/>
</svg>
