<svg width="270" height="77" viewBox="0 0 270 77" fill="none" xmlns="http://www.w3.org/2000/svg">
<path d="M115.507 51.041V28.5661H118.974V47.7019H133.101V51.041H115.507ZM165.718 49.4678V31.231L167.003 31.4236L161.705 34.3133L160.517 31.4558L166.393 28.2451H169.218V49.4678H165.718ZM161.127 51.041V47.7019H173.135V51.041H161.127ZM201.161 51.041V28.5661H218.916V31.9053H204.628V47.7019H218.916V51.041H201.161ZM202.991 41.1842V37.845H217.15V41.1842H202.991ZM248.08 51.041V28.5661H251.547V51.041H248.08ZM249.332 41.73V38.3909H264.294V41.73H249.332ZM249.685 31.9053V28.5661H265.738V31.9053H249.685Z" fill="#151515"/>
<mask id="path-2-outside-1_1558_1663" maskUnits="userSpaceOnUse" x="1" y="1" width="77" height="76" fill="black">
<rect fill="white" x="1" y="1" width="77" height="76"/>
<path fill-rule="evenodd" clip-rule="evenodd" d="M39.0001 2C18.5655 2 2 18.5655 2 39.0001V76.0002H39.487C59.9215 76.0002 76.4871 59.4347 76.4871 39.0001V2H39.0001ZM36.9321 10.9453C34.5752 10.9453 32.2904 11.254 30.116 11.8332V67.6045H40.342V10.9453H36.9321ZM49.2882 10.9453V22.4483H67.1787V10.9453H49.2882ZM49.2882 42.8976V31.3945L67.1787 31.3945V41.1919C67.1787 41.7649 67.1605 42.3337 67.1245 42.8976H49.2882ZM49.2882 51.8438V66.1995C56.2956 63.8122 61.9785 58.5623 64.9429 51.8438H49.2882ZM10.5195 37.3579C10.5195 28.6784 14.706 20.9768 21.1698 16.1621V67.6045H10.5195V37.3579Z"/>
</mask>
<path fill-rule="evenodd" clip-rule="evenodd" d="M39.0001 2C18.5655 2 2 18.5655 2 39.0001V76.0002H39.487C59.9215 76.0002 76.4871 59.4347 76.4871 39.0001V2H39.0001ZM36.9321 10.9453C34.5752 10.9453 32.2904 11.254 30.116 11.8332V67.6045H40.342V10.9453H36.9321ZM49.2882 10.9453V22.4483H67.1787V10.9453H49.2882ZM49.2882 42.8976V31.3945L67.1787 31.3945V41.1919C67.1787 41.7649 67.1605 42.3337 67.1245 42.8976H49.2882ZM49.2882 51.8438V66.1995C56.2956 63.8122 61.9785 58.5623 64.9429 51.8438H49.2882ZM10.5195 37.3579C10.5195 28.6784 14.706 20.9768 21.1698 16.1621V67.6045H10.5195V37.3579Z" fill="#151515"/>
<path d="M2 76.0002H1.14798V76.8522H2V76.0002ZM76.4871 2H77.3391V1.14798H76.4871V2ZM30.116 11.8332L29.8967 11.0099L29.2639 11.1784V11.8332H30.116ZM30.116 67.6045H29.2639V68.4565H30.116V67.6045ZM40.342 67.6045V68.4565H41.194V67.6045H40.342ZM40.342 10.9453H41.194V10.0933H40.342V10.9453ZM49.2882 22.4483H48.4362V23.3004H49.2882V22.4483ZM49.2882 10.9453V10.0933H48.4362V10.9453H49.2882ZM67.1787 22.4483V23.3004H68.0307V22.4483H67.1787ZM67.1787 10.9453H68.0307V10.0933H67.1787V10.9453ZM49.2882 31.3945L49.2882 30.5425L48.4362 30.5425V31.3945H49.2882ZM49.2882 42.8976H48.4362V43.7496H49.2882V42.8976ZM67.1787 31.3945H68.0307V30.5425L67.1787 30.5425L67.1787 31.3945ZM67.1245 42.8976V43.7496H67.924L67.9748 42.9518L67.1245 42.8976ZM49.2882 51.8438V50.9917H48.4362V51.8438H49.2882ZM49.2882 66.1995H48.4362V67.3899L49.563 67.006L49.2882 66.1995ZM64.9429 51.8438L65.7224 52.1877L66.2501 50.9917H64.9429V51.8438ZM21.1698 16.1621H22.0218V14.4651L20.6608 15.4789L21.1698 16.1621ZM21.1698 67.6045V68.4565H22.0218V67.6045H21.1698ZM10.5195 67.6045H9.66751V68.4565H10.5195V67.6045ZM2.85202 39.0001C2.85202 19.0361 19.0361 2.85202 39.0001 2.85202V1.14798C18.095 1.14798 1.14798 18.0949 1.14798 39.0001H2.85202ZM2.85202 76.0002V39.0001H1.14798V76.0002H2.85202ZM39.487 75.1482H2V76.8522H39.487V75.1482ZM75.635 39.0001C75.635 58.9642 59.451 75.1482 39.487 75.1482V76.8522C60.3921 76.8522 77.3391 59.9053 77.3391 39.0001H75.635ZM75.635 2V39.0001H77.3391V2H75.635ZM39.0001 2.85202H76.4871V1.14798H39.0001V2.85202ZM30.3353 12.6565C32.4388 12.0962 34.6499 11.7973 36.9321 11.7973V10.0933C34.5005 10.0933 32.142 10.4118 29.8967 11.0099L30.3353 12.6565ZM30.968 67.6045V11.8332H29.2639V67.6045H30.968ZM40.342 66.7525H30.116V68.4565H40.342V66.7525ZM39.49 10.9453V67.6045H41.194V10.9453H39.49ZM36.9321 11.7973H40.342V10.0933H36.9321V11.7973ZM50.1402 22.4483V10.9453H48.4362V22.4483H50.1402ZM67.1787 21.5963H49.2882V23.3004H67.1787V21.5963ZM66.3267 10.9453V22.4483H68.0307V10.9453H66.3267ZM49.2882 11.7973H67.1787V10.0933H49.2882V11.7973ZM48.4362 31.3945V42.8976H50.1402V31.3945H48.4362ZM67.1787 30.5425L49.2882 30.5425L49.2882 32.2465L67.1787 32.2465L67.1787 30.5425ZM68.0307 41.1919V31.3945H66.3267V41.1919H68.0307ZM67.9748 42.9518C68.0119 42.3698 68.0307 41.783 68.0307 41.1919H66.3267C66.3267 41.7468 66.309 42.2975 66.2742 42.8434L67.9748 42.9518ZM49.2882 43.7496H67.1245V42.0455H49.2882V43.7496ZM48.4362 51.8438V66.1995H50.1402V51.8438H48.4362ZM49.563 67.006C56.7975 64.5413 62.6625 59.1228 65.7224 52.1877L64.1633 51.4998C61.2945 58.0019 55.7938 63.0831 49.0134 65.393L49.563 67.006ZM64.9429 50.9917H49.2882V52.6958H64.9429V50.9917ZM20.6608 15.4789C13.9905 20.4474 9.66751 28.3979 9.66751 37.3579H11.3715C11.3715 28.959 15.4215 21.5062 21.6787 16.8454L20.6608 15.4789ZM22.0218 67.6045V16.1621H20.3178V67.6045H22.0218ZM10.5195 68.4565H21.1698V66.7525H10.5195V68.4565ZM9.66751 37.3579V67.6045H11.3715V37.3579H9.66751Z" fill="#151515" mask="url(#path-2-outside-1_1558_1663)"/>
</svg>
