<svg width="327" height="76" viewBox="0 0 327 76" fill="none" xmlns="http://www.w3.org/2000/svg">
<path fill-rule="evenodd" clip-rule="evenodd" d="M320.598 25.7329H323.791V28.455H314.002V25.7329H317.745V13.0335L314.473 14.8181L313.505 12.4886L318.294 9.87109H320.598V25.7329ZM1.42188 28.1635V52.698H20.6289V49.0529H5.2072V28.1635H1.42188ZM60.2658 28.1635L48.8047 52.698H52.7652L55.487 46.8798H69.1437L71.8671 52.698H76.0029L64.5768 28.1635H60.2658ZM67.4375 43.2347L64.1563 36.2248C63.9693 35.8276 63.7707 35.407 63.5604 34.963C63.3501 34.4957 63.1398 34.0167 62.9295 33.526C62.7192 33.0353 62.5206 32.5446 62.3337 32.054C62.3249 32.0297 62.3161 32.0056 62.3074 31.9814C62.2928 32.0173 62.2782 32.0532 62.2636 32.089C62.0767 32.6031 61.8664 33.1054 61.6327 33.5961C61.4224 34.0868 61.2121 34.5658 61.0018 35.0331C60.7915 35.4771 60.5929 35.9211 60.406 36.365L57.1923 43.2347H67.4375ZM105.57 28.1635V52.698H109.356V42.3584C109.356 40.349 109.309 38.503 109.215 36.8207C109.164 35.8867 109.085 34.9493 108.978 34.0084L118.118 45.6531H120.431L129.629 33.9851C129.521 34.9492 129.434 35.9061 129.369 36.8557C129.275 38.5614 129.229 40.3957 129.229 42.3584V52.698H133.014V28.1635H129.369L119.311 41.2356L109.285 28.1635H105.57ZM165.689 48.9828V52.698H181.321V48.9828H175.397V31.8787H181.321V28.1635H165.689V31.8787H171.612V48.9828H165.689ZM213.997 28.1635V52.698H217.782V42.4986C217.782 41.9612 217.771 41.3771 217.747 40.7462C217.724 40.1153 217.677 39.4727 217.607 38.8185C217.56 38.1642 217.502 37.4983 217.432 36.8207C217.362 36.143 217.303 35.4771 217.257 34.8228C217.226 34.3825 217.191 33.9521 217.151 33.5315L235.658 52.698H239.408V28.1635H235.623V36.2248V38.7484C235.646 39.6129 235.669 40.4891 235.693 41.3771C235.739 42.2416 235.786 43.0945 235.833 43.9357C235.903 44.7768 235.973 45.5947 236.043 46.3891C236.088 46.888 236.144 47.3674 236.209 47.8272L217.677 28.1635H213.997ZM280.44 28.1635L268.979 52.698H272.939L275.661 46.8798H289.318L292.041 52.698H296.177L284.751 28.1635H280.44ZM287.611 43.2347L284.33 36.2248C284.143 35.8276 283.945 35.407 283.734 34.963C283.524 34.4957 283.314 34.0167 283.103 33.526C282.893 33.0353 282.694 32.5446 282.508 32.054C282.499 32.0297 282.49 32.0056 282.481 31.9814C282.467 32.0173 282.452 32.0532 282.437 32.089C282.251 32.6031 282.04 33.1054 281.807 33.5961C281.596 34.0868 281.386 34.5658 281.176 35.0331C280.965 35.4771 280.767 35.9211 280.58 36.365L277.366 43.2347H287.611Z" fill="#414141"/>
</svg>
