<svg width="149" height="76" viewBox="0 0 149 76" fill="none" xmlns="http://www.w3.org/2000/svg">
<path d="M27.4174 15.3864C14.6647 15.3864 4.25732 25.7938 4.25732 38.5465C4.25732 51.2992 14.6647 61.7066 27.4174 61.7066C40.1701 61.7066 50.5775 51.2992 50.5775 38.5465C50.5775 25.7938 40.1701 15.3864 27.4174 15.3864ZM27.4174 56.3563C17.5964 56.3563 9.6076 48.3676 9.6076 38.5465C9.6076 28.7254 17.5964 20.7367 27.4174 20.7367C37.2385 20.7367 45.2272 28.7254 45.2272 38.5465C45.2272 48.3676 37.2385 56.3563 27.4174 56.3563ZM58.4352 60.9004V16.1193H53.0849V60.9004H58.4352ZM58.4352 16.1193L70.2351 60.9004H75.8052L64.0786 16.1193H58.4352ZM98.5989 60.9004V16.1193H93.2486V60.9004H98.5989ZM75.8052 60.9004H81.4487L93.2486 16.1193H87.6051L75.8052 60.9004ZM139.97 47.0483C136.818 52.765 130.808 56.3563 124.285 56.3563C114.464 56.3563 106.475 48.3676 106.475 38.5465C106.475 28.7254 114.464 20.7367 124.285 20.7367C130.808 20.7367 136.818 24.2547 139.97 30.0447L144.587 27.4795C140.556 20.0038 132.787 15.3864 124.285 15.3864C111.533 15.3864 101.125 25.7938 101.125 38.5465C101.125 51.2992 111.533 61.7066 124.285 61.7066C132.787 61.7066 140.556 57.0159 144.587 49.6135L139.97 47.0483Z" fill="black"/>
</svg>
